<?xml version="1.0" encoding="UTF-8" standalone="no"?><!DOCTYPE svg PUBLIC "-//W3C//DTD SVG 1.1//EN" "http://www.w3.org/Graphics/SVG/1.1/DTD/svg11.dtd"><svg width="100%" height="100%" viewBox="0 0 2892 715" version="1.1" xmlns="http://www.w3.org/2000/svg" xmlns:xlink="http://www.w3.org/1999/xlink" xml:space="preserve" xmlns:serif="http://www.serif.com/" style="fill-rule:evenodd;clip-rule:evenodd;stroke-linejoin:round;stroke-miterlimit:2;"><rect id="Artboard2" x="0" y="0" width="2891.53" height="714.98" style="fill:none;"/><clipPath id="_clip1"><rect x="0" y="0" width="2891.53" height="714.98"/></clipPath><g clip-path="url(#_clip1)"><g><path d="M1215.33,192.315c40.311,-0 72.818,12.388 97.518,37.166c24.701,24.777 37.051,59.366 37.051,103.767l0,193.264l-82.994,-0l-0,-181.965c-0,-25.769 -6.521,-45.491 -19.563,-59.168c-13.042,-13.678 -30.827,-20.516 -53.354,-20.516c-22.527,-0 -40.41,6.838 -53.65,20.516c-13.239,13.677 -19.859,33.399 -19.859,59.168l-0,181.965l-82.994,-0l-0,-181.965c-0,-25.769 -6.521,-45.491 -19.563,-59.168c-13.042,-13.678 -30.827,-20.516 -53.354,-20.516c-22.922,-0 -41.003,6.838 -54.243,20.516c-13.239,13.677 -19.859,33.399 -19.859,59.168l-0,181.965l-82.995,-0l0,-329.44l82.995,0l-0,39.842c10.67,-13.875 24.404,-24.777 41.201,-32.706c16.796,-7.929 35.272,-11.893 55.428,-11.893c25.689,-0 48.611,5.451 68.767,16.353c20.156,10.902 35.767,26.462 46.832,46.68c10.671,-19.029 26.183,-34.291 46.537,-45.788c20.353,-11.497 42.386,-17.245 66.099,-17.245Z" style="fill:#6545f5;fill-rule:nonzero;"/><path d="M1382.5,360.603c0,-33.301 6.62,-62.836 19.86,-88.604c13.239,-25.769 31.221,-45.591 53.946,-59.466c22.725,-13.875 48.117,-20.813 76.177,-20.813c24.503,0 45.943,4.956 64.321,14.867c18.377,9.91 33.099,22.398 44.165,37.463l-0,-46.978l83.587,0l-0,329.44l-83.587,-0l-0,-48.167c-10.671,15.461 -25.393,28.246 -44.165,38.355c-18.773,10.109 -40.411,15.164 -64.914,15.164c-27.665,-0 -52.859,-7.136 -75.584,-21.408c-22.725,-14.272 -40.707,-34.391 -53.946,-60.358c-13.24,-25.966 -19.86,-55.798 -19.86,-89.495Zm258.469,1.189c-0,-20.218 -3.952,-37.563 -11.857,-52.033c-7.904,-14.469 -18.575,-25.57 -32.012,-33.3c-13.437,-7.731 -27.862,-11.596 -43.275,-11.596c-15.414,-0 -29.641,3.766 -42.683,11.298c-13.042,7.533 -23.614,18.534 -31.716,33.004c-8.102,14.47 -12.153,31.616 -12.153,51.438c0,19.822 4.051,37.166 12.153,52.032c8.102,14.867 18.773,26.264 32.012,34.193c13.24,7.929 27.369,11.893 42.387,11.893c15.413,0 29.838,-3.865 43.275,-11.596c13.437,-7.73 24.108,-18.831 32.012,-33.301c7.905,-14.47 11.857,-31.814 11.857,-52.032Z" style="fill:#6545f5;fill-rule:nonzero;"/><path d="M1909.52,191.72c24.503,0 46.042,4.856 64.617,14.569c18.575,9.713 33.198,22.3 43.869,37.761l-0,-46.978l83.587,0l-0,331.819c-0,30.525 -6.126,57.78 -18.377,81.765c-12.252,23.984 -30.629,43.013 -55.132,57.087c-24.504,14.073 -54.144,21.11 -88.923,21.11c-46.635,0 -84.872,-10.902 -114.71,-32.706c-29.839,-21.804 -45.734,-48.537 -49.686,-86.198l82.401,-0c4.348,15.064 12.734,24.056 27.159,32.976c14.426,8.92 31.914,13.38 52.465,13.38c24.108,0 43.671,-7.235 58.689,-21.705c15.018,-14.47 22.527,-36.373 22.527,-65.709l-0,-51.141c-10.671,15.461 -25.393,28.345 -44.165,38.653c-18.773,10.307 -40.213,15.461 -64.321,15.461c-27.665,-0 -52.958,-7.136 -75.881,-21.408c-22.922,-14.272 -41.003,-34.391 -54.242,-60.358c-13.24,-25.966 -19.86,-55.798 -19.86,-89.495c0,-33.301 6.62,-62.836 19.86,-88.604c13.239,-25.769 31.221,-45.591 53.946,-59.466c22.725,-13.875 48.117,-20.813 76.177,-20.813Zm108.486,170.072c-0,-20.218 -3.952,-37.563 -11.857,-52.033c-7.904,-14.469 -18.575,-25.57 -32.012,-33.3c-13.437,-7.731 -27.862,-11.596 -43.276,-11.596c-15.413,-0 -29.64,3.766 -42.682,11.298c-13.042,7.533 -23.614,18.534 -31.716,33.004c-8.102,14.47 -12.153,31.616 -12.153,51.438c0,19.822 4.051,37.166 12.153,52.032c8.102,14.867 18.772,26.264 32.012,34.193c13.24,7.929 27.368,11.893 42.386,11.893c15.414,0 29.839,-3.865 43.276,-11.596c13.437,-7.73 24.108,-18.831 32.012,-33.301c7.905,-14.47 11.857,-31.814 11.857,-52.032Z" style="fill:#6545f5;fill-rule:nonzero;"/><path d="M2463.21,354.656c-0,11.893 -0.791,22.597 -2.372,32.112l-240.091,-0c1.976,23.786 10.276,42.418 24.899,55.897c14.622,13.479 32.605,20.219 53.946,20.219c30.826,-0 52.761,-13.281 65.803,-39.842l89.515,-0c-9.485,31.715 -27.665,57.78 -54.539,78.197c-26.874,20.417 -59.875,30.625 -99.001,30.625c-31.617,-0 -59.973,-7.037 -85.069,-21.111c-25.096,-14.073 -44.659,-33.994 -58.689,-59.763c-14.03,-25.768 -21.045,-55.501 -21.045,-89.198c0,-34.094 6.916,-64.025 20.749,-89.793c13.832,-25.769 33.198,-45.591 58.096,-59.466c24.898,-13.875 53.551,-20.813 85.958,-20.813c31.222,0 59.183,6.74 83.884,20.218c24.701,13.479 43.869,32.607 57.503,57.385c13.635,24.777 20.453,53.222 20.453,85.333Zm-85.959,-23.786c-0.395,-21.408 -8.102,-38.554 -23.12,-51.438c-15.018,-12.884 -33.395,-19.326 -55.132,-19.326c-20.551,-0 -37.841,6.244 -51.871,18.731c-14.03,12.488 -22.626,29.832 -25.788,52.033l155.911,-0Z" style="fill:#6545f5;fill-rule:nonzero;"/><path d="M2693.22,526.512l-111.45,-140.339l0,140.339l-82.994,-0l-0,-454.046l82.994,-0l0,264.35l110.264,-139.744l107.893,0l-144.648,165.315l145.834,164.125l-107.893,-0Z" style="fill:#6545f5;fill-rule:nonzero;"/></g><path d="M145.419,374.47l0,57.359c0,5.629 2.237,11.027 6.217,15.008c3.98,3.98 9.379,6.216 15.008,6.216l57.359,0l-57.359,0c-5.629,0 -11.028,2.236 -15.008,6.217c-3.98,3.98 -6.217,9.379 -6.217,15.008l0,57.359l0,-57.359c0,-5.629 -2.236,-11.028 -6.216,-15.008c-3.98,-3.981 -9.379,-6.217 -15.008,-6.217l-57.359,0l57.359,0c5.629,0 11.028,-2.236 15.008,-6.216c3.98,-3.981 6.216,-9.379 6.216,-15.008l0,-57.359Z" style="fill:url(#_Linear2);"/><path d="M496.134,490.373l-0,60.715c-0,5.958 2.367,11.673 6.58,15.886c4.213,4.213 9.928,6.58 15.886,6.58l60.715,0l-60.715,0c-5.958,0 -11.673,2.367 -15.886,6.581c-4.213,4.213 -6.58,9.927 -6.58,15.886l-0,60.715l-0,-60.715c-0,-5.959 -2.367,-11.673 -6.581,-15.886c-4.213,-4.214 -9.927,-6.581 -15.886,-6.581l-60.715,0l60.715,0c5.959,0 11.673,-2.367 15.886,-6.58c4.214,-4.213 6.581,-9.928 6.581,-15.886l-0,-60.715Z" style="fill:url(#_Linear3);"/><path d="M214.308,-20.291l0,110.579c0,10.852 4.311,21.259 11.984,28.933c7.674,7.673 18.082,11.984 28.934,11.984l110.578,0l-110.578,0c-10.852,0 -21.26,4.311 -28.934,11.985c-7.673,7.673 -11.984,18.081 -11.984,28.933l0,110.578l0,-110.578c0,-10.852 -4.311,-21.26 -11.984,-28.933c-7.674,-7.674 -18.082,-11.985 -28.934,-11.985l-110.578,0l110.578,0c10.852,0 21.26,-4.311 28.934,-11.984c7.673,-7.674 11.984,-18.081 11.984,-28.933l0,-110.579Z" style="fill:url(#_Linear4);"/><path d="M537.95,34.078l0,68.103c0,6.684 2.655,13.093 7.381,17.819c4.726,4.726 11.136,7.381 17.82,7.381l68.103,0l-68.103,0c-6.684,0 -13.094,2.656 -17.82,7.382c-4.726,4.726 -7.381,11.135 -7.381,17.819l0,68.103l0,-68.103c0,-6.684 -2.655,-13.093 -7.381,-17.819c-4.726,-4.726 -11.136,-7.382 -17.819,-7.382l-68.103,0l68.103,0c6.683,0 13.093,-2.655 17.819,-7.381c4.726,-4.726 7.381,-11.135 7.381,-17.819l0,-68.103Z" style="fill:url(#_Linear5);"/><path d="M605.044,177.724l-0,54.867c-0,5.385 2.139,10.549 5.946,14.356c3.808,3.808 8.972,5.947 14.356,5.947l54.868,-0l-54.868,-0c-5.384,-0 -10.548,2.139 -14.356,5.946c-3.807,3.808 -5.946,8.972 -5.946,14.357l-0,54.867l-0,-54.867c-0,-5.385 -2.139,-10.549 -5.947,-14.357c-3.807,-3.807 -8.972,-5.946 -14.356,-5.946l-54.867,-0l54.867,-0c5.384,-0 10.549,-2.139 14.356,-5.947c3.808,-3.807 5.947,-8.971 5.947,-14.356l-0,-54.867Z" style="fill:url(#_Linear6);"/><path d="M363.922,83.347c2.368,-4.668 7.158,-7.609 12.392,-7.609c5.234,-0 10.024,2.941 12.392,7.609l50.897,100.324c3.157,6.223 10.004,9.66 16.881,8.474l86.27,-14.883c4.45,-0.768 8.995,0.675 12.188,3.867c3.193,3.193 4.635,7.739 3.868,12.188l-14.883,86.271c-1.187,6.877 2.25,13.723 8.474,16.881l100.324,50.897c4.668,2.368 7.609,7.158 7.609,12.392c-0,5.234 -2.941,10.024 -7.609,12.392l-100.324,50.897c-6.224,3.157 -9.661,10.004 -8.474,16.881l14.883,86.27c0.767,4.45 -0.675,8.995 -3.868,12.188c-3.193,3.193 -7.738,4.636 -12.188,3.868l-86.27,-14.883c-6.877,-1.187 -13.724,2.25 -16.881,8.474l-50.897,100.324c-2.368,4.668 -7.158,7.609 -12.392,7.609c-5.234,-0 -10.024,-2.941 -12.392,-7.609l-50.897,-100.324c-3.158,-6.224 -10.005,-9.661 -16.882,-8.474l-86.27,14.883c-4.45,0.768 -8.995,-0.675 -12.188,-3.868c-3.193,-3.193 -4.635,-7.738 -3.867,-12.188l14.883,-86.27c1.186,-6.877 -2.251,-13.724 -8.474,-16.881l-100.325,-50.897c-4.667,-2.368 -7.608,-7.158 -7.608,-12.392c-0,-5.234 2.941,-10.024 7.608,-12.392l100.325,-50.897c6.223,-3.158 9.66,-10.004 8.474,-16.881l-14.883,-86.271c-0.768,-4.449 0.674,-8.995 3.867,-12.188c3.193,-3.192 7.738,-4.635 12.188,-3.867l86.27,14.883c6.877,1.186 13.724,-2.251 16.882,-8.474l50.897,-100.324Zm12.392,124.6c-83.787,0 -151.811,68.024 -151.811,151.811c0,83.786 68.024,151.81 151.811,151.81c83.786,0 151.81,-68.024 151.81,-151.81c0,-83.787 -68.024,-151.811 -151.81,-151.811Zm-0,17.745c73.993,-0 134.066,60.073 134.066,134.066c-0,73.993 -60.073,134.066 -134.066,134.066c-73.994,0 -134.067,-60.073 -134.067,-134.066c0,-73.993 60.073,-134.066 134.067,-134.066Zm-0,53.107c-44.683,0 -80.959,36.277 -80.959,80.959c0,44.682 36.276,80.958 80.959,80.958c44.682,0 80.958,-36.276 80.958,-80.958c0,-44.682 -36.276,-80.959 -80.958,-80.959Zm-0,40.48c22.341,-0 40.479,18.138 40.479,40.479c-0,22.341 -18.138,40.479 -40.479,40.479c-22.341,0 -40.48,-18.138 -40.48,-40.479c0,-22.341 18.139,-40.479 40.48,-40.479Z" style="fill:url(#_Linear7);"/></g><defs><linearGradient id="_Linear2" x1="0" y1="0" x2="1" y2="0" gradientUnits="userSpaceOnUse" gradientTransform="matrix(235.239,454.298,-454.298,235.239,235.912,135.951)"><stop offset="0" style="stop-color:#fbd248;stop-opacity:1"/><stop offset="0.5" style="stop-color:#e95a85;stop-opacity:1"/><stop offset="0.72" style="stop-color:#b752b0;stop-opacity:1"/><stop offset="1" style="stop-color:#6545f5;stop-opacity:1"/></linearGradient><linearGradient id="_Linear3" x1="0" y1="0" x2="1" y2="0" gradientUnits="userSpaceOnUse" gradientTransform="matrix(235.239,454.298,-454.298,235.239,260.091,123.162)"><stop offset="0" style="stop-color:#fbd248;stop-opacity:1"/><stop offset="0.5" style="stop-color:#e95a85;stop-opacity:1"/><stop offset="0.72" style="stop-color:#b752b0;stop-opacity:1"/><stop offset="1" style="stop-color:#6545f5;stop-opacity:1"/></linearGradient><linearGradient id="_Linear4" x1="0" y1="0" x2="1" y2="0" gradientUnits="userSpaceOnUse" gradientTransform="matrix(286.237,539.459,-539.459,286.237,208.073,131.525)"><stop offset="0" style="stop-color:#fbd248;stop-opacity:1"/><stop offset="0.5" style="stop-color:#e95a85;stop-opacity:1"/><stop offset="0.72" style="stop-color:#b752b0;stop-opacity:1"/><stop offset="1" style="stop-color:#6545f5;stop-opacity:1"/></linearGradient><linearGradient id="_Linear5" x1="0" y1="0" x2="1" y2="0" gradientUnits="userSpaceOnUse" gradientTransform="matrix(235.239,454.298,-454.298,235.239,294.943,119.974)"><stop offset="0" style="stop-color:#fbd248;stop-opacity:1"/><stop offset="0.5" style="stop-color:#e95a85;stop-opacity:1"/><stop offset="0.72" style="stop-color:#b752b0;stop-opacity:1"/><stop offset="1" style="stop-color:#6545f5;stop-opacity:1"/></linearGradient><linearGradient id="_Linear6" x1="0" y1="0" x2="1" y2="0" gradientUnits="userSpaceOnUse" gradientTransform="matrix(235.239,454.298,-454.298,235.239,261.364,141.107)"><stop offset="0" style="stop-color:#fbd248;stop-opacity:1"/><stop offset="0.5" style="stop-color:#e95a85;stop-opacity:1"/><stop offset="0.72" style="stop-color:#b752b0;stop-opacity:1"/><stop offset="1" style="stop-color:#6545f5;stop-opacity:1"/></linearGradient><linearGradient id="_Linear7" x1="0" y1="0" x2="1" y2="0" gradientUnits="userSpaceOnUse" gradientTransform="matrix(235.239,454.298,-454.298,235.239,261.364,141.107)"><stop offset="0" style="stop-color:#fbd248;stop-opacity:1"/><stop offset="0.5" style="stop-color:#e95a85;stop-opacity:1"/><stop offset="0.72" style="stop-color:#b752b0;stop-opacity:1"/><stop offset="1" style="stop-color:#6545f5;stop-opacity:1"/></linearGradient></defs></svg>